<?xml version="1.0" encoding="UTF-8" standalone="no"?>
<svg
   height="24px"
   viewBox="0 -960 960 960"
   width="24px"
   fill="#e8eaed"
   version="1.1"
   id="svg11"
   sodipodi:docname="add_all_members.svg"
   inkscape:version="1.1.2 (b8e25be8, 2022-02-05)"
   xmlns:inkscape="http://www.inkscape.org/namespaces/inkscape"
   xmlns:sodipodi="http://sodipodi.sourceforge.net/DTD/sodipodi-0.dtd"
   xmlns="http://www.w3.org/2000/svg"
   xmlns:svg="http://www.w3.org/2000/svg">
  <defs
     id="defs15" />
  <sodipodi:namedview
     id="namedview13"
     pagecolor="#505050"
     bordercolor="#eeeeee"
     borderopacity="1"
     inkscape:pageshadow="0"
     inkscape:pageopacity="0"
     inkscape:pagecheckerboard="0"
     showgrid="false"
     inkscape:zoom="8.911184"
     inkscape:cx="-13.578443"
     inkscape:cy="14.027317"
     inkscape:window-width="1312"
     inkscape:window-height="916"
     inkscape:window-x="0"
     inkscape:window-y="38"
     inkscape:window-maximized="0"
     inkscape:current-layer="g5053" />
  <path
     d="m 52.020285,-166.6902 q -21.681662,0 -36.855881,-15.1644 Q 0,-197.02882 0,-218.71049 v -18.68804 q 0,-46.64158 45.954523,-75.3607 45.964339,-28.71913 119.960737,-28.71913 8.32325,0 15.38034,0.20612 7.06691,0.21593 14.53623,1.06985 -15.40978,22.83004 -22.83003,48.10404 -7.43007,25.26419 -7.43007,52.73679 v 72.67136 z m 235.563555,0 q -21.68166,0 -36.85588,-15.1644 -15.16441,-15.17422 -15.16441,-36.85589 v -20.65107 q 0,-33.07705 17.45134,-61.02077 17.45133,-27.95354 50.52838,-48.69295 33.06723,-20.73941 78.13839,-31.11402 45.06135,-10.3648 98.29871,-10.3648 54.25814,0 99.04466,10.3648 44.78652,10.37461 77.86357,31.11402 33.06723,20.73941 50.31245,48.69295 17.2354,27.94372 17.2354,61.02077 v 20.65107 q 0,21.68167 -15.16441,36.85589 -15.17421,15.1644 -36.85588,15.1644 z m 506.84443,0 v -72.67136 q 0,-28.50319 -7.21413,-53.70849 -7.21414,-25.2053 -21.63259,-47.13234 7.46933,-0.85392 14.37919,-1.06985 6.90987,-0.20612 14.124,-0.20612 74.66383,0 120.29445,28.43449 Q 960,-284.60939 960,-237.39853 v 18.68804 q 0,21.68167 -15.1644,36.85589 -15.17422,15.1644 -36.85588,15.1644 z m -450.47604,-93.4991 h 273.07705 q -15.92017,-15.7435 -54.74889,-26.57942 -38.83854,-10.84574 -82.00556,-10.84574 -43.16703,0 -82.27058,10.84574 -39.11336,10.83592 -54.05202,26.57942 z M 165.96434,-378.52073 q -34.65729,0 -59.39146,-24.66546 -24.72436,-24.67529 -24.72436,-59.31294 0,-35.68788 24.66547,-59.92148 24.66546,-24.24342 59.30312,-24.24342 35.68788,0 59.9313,24.15508 24.2336,24.15508 24.2336,59.86259 0,34.6671 -24.15508,59.39146 -24.15508,24.73417 -59.86259,24.73417 z m 628.16947,0 q -34.65728,0 -59.39146,-24.66546 -24.72435,-24.67529 -24.72435,-59.31294 0,-35.68788 24.66546,-59.92148 24.66547,-24.24342 59.30313,-24.24342 35.68788,0 59.93129,24.15508 24.2336,24.15508 24.2336,59.86259 0,34.6671 -24.15508,59.39146 -24.15508,24.73417 -59.86259,24.73417 z M 480,-419.44989 q -52.77605,0 -89.72027,-36.94422 -36.9344,-36.9344 -36.9344,-89.71045 0,-53.38459 36.9344,-90.02454 36.94422,-36.63995 89.72027,-36.63995 53.38459,0 90.02454,36.63995 36.63013,36.63995 36.63013,90.02454 0,52.77605 -36.63013,89.71045 -36.63995,36.94422 -90.02454,36.94422 z m 0.27483,-92.94946 q 14.1927,0 23.81154,-9.89367 9.62866,-9.90348 9.62866,-24.09618 0,-14.18289 -9.69736,-23.81155 -9.68755,-9.61885 -24.01767,-9.61885 -13.90806,0 -23.81155,9.68755 -9.90348,9.69737 -9.90348,24.02749 0,13.90806 9.90348,23.81154 9.90349,9.89367 24.08638,9.89367 z m 0.70669,252.21005 z M 480,-546.10456 Z"
     id="path9"
     style="fill:#e8eaed;fill-opacity:1;stroke-width:0.981515" />
  <g
     id="g5053"
     transform="matrix(0.875,0,0,0.875,684.76695,-41.923707)">
    <g
       id="g98"
       transform="translate(10.25998,-5.7100491)">
      <rect
         style="fill:#e8eaed;fill-opacity:1;stroke-width:42.9198"
         id="rect137"
         width="100"
         height="320"
         x="-5.6843419e-14"
         y="-960"
         ry="66.666664" />
      <rect
         style="fill:#e8eaed;fill-opacity:1;stroke-width:42.9198"
         id="rect137-7"
         width="100"
         height="320"
         x="-850"
         y="-210"
         transform="rotate(90)"
         ry="66.666664" />
    </g>
  </g>
</svg>
