<svg xmlns="http://www.w3.org/2000/svg" width="24" height="24" fill="#e8eaed" viewBox="0 -960 960 960"><path d="M480 0q-98.761 0-186.536-37.817-87.786-37.818-152.808-102.84-65.021-65.02-102.839-152.807Q0-381.24 0-480q0-99.926 37.817-187.118 37.818-87.204 102.84-152.226 65.02-65.021 152.807-102.839Q381.24-960 480-960q99.926 0 187.118 37.817 87.204 37.818 152.226 102.84 65.021 65.02 102.839 152.225Q960-579.926 960-480q0 98.761-37.817 186.536-37.818 87.786-102.84 152.808-65.02 65.021-152.225 102.839Q579.926 0 480 0m-43.107-93.03v-54.663q-46.24-5.65-86.843-22.625-40.59-16.987-74.83-44.144l-38.808 37.91q42.035 34.055 92.854 55.97 50.808 21.914 107.627 27.553m88.544 0Q581.09-98.667 631.095-120q50.016-21.332 92.039-55.386l-38.353-37.911q-34.241 27.157-74.249 43.561-40.02 16.392-85.095 22.043zM480-233.638q104.318 0 175.922-71.604T727.526-480q0-104.318-71.604-176.505T480-728.69q-103.153 0-175.34 72.186T232.474-480q0 103.153 72.186 174.757T480-233.639m305.779-3.938q34.054-42.035 55.386-92.272 21.332-50.225 26.97-105.88h-54.663q-5.65 45.077-22.043 85.096-16.404 40.008-43.561 74.249zm-611.558-1.165 37.911-39.53q-25.992-34.229-42.396-73.305-16.392-39.075-22.043-84.151H93.03q5.639 55.654 26.971 105.88 21.332 50.236 54.221 91.106m283.107-88.194L368.062-445.41q-11.918-14.959-12.5-34.59t11.335-34.59l90.431-119.64q8.866-11.918 22.672-11.918t22.672 11.919l90.43 119.639q11.92 14.959 11.92 34.59t-11.92 34.59l-90.43 118.474q-8.866 11.919-22.672 11.919t-22.672-11.919M93.03-524.272h54.664q5.65-46.24 22.043-85.899 16.404-39.658 43.561-73.887l-37.91-39.076Q141.331-681.111 120-631.095q-21.332 50.004-26.97 106.823m720.443 0h54.664q-5.639-56.82-27.332-107.406-21.682-50.598-55.736-92.621l-38.365 38.353q27.157 34.241 44.144 74.831 16.974 40.602 22.625 86.843m-537.53-223.596q34.229-27.157 74.47-43.561 40.24-16.392 86.481-22.043v-54.664q-56.82 5.639-107.044 26.971-50.237 21.332-92.272 55.386zm407.674-1.165 38.353-38.365q-40.858-32.89-90.874-53.988-50.004-21.111-105.658-26.75v54.664q45.076 5.65 84.513 22.043 39.425 16.404 73.666 42.396"/></svg>