<?xml version="1.0" encoding="UTF-8" standalone="no"?>
<svg
   height="24px"
   viewBox="0 -960 960 960"
   width="24px"
   fill="#e8eaed"
   version="1.1"
   id="svg11"
   sodipodi:docname="sort_24dp_E8EAED_FILL0_wght600_GRAD0_opsz24.svg"
   inkscape:version="1.1.2 (b8e25be8, 2022-02-05)"
   xmlns:inkscape="http://www.inkscape.org/namespaces/inkscape"
   xmlns:sodipodi="http://sodipodi.sourceforge.net/DTD/sodipodi-0.dtd"
   xmlns="http://www.w3.org/2000/svg"
   xmlns:svg="http://www.w3.org/2000/svg">
  <defs
     id="defs15" />
  <sodipodi:namedview
     id="namedview13"
     pagecolor="#505050"
     bordercolor="#eeeeee"
     borderopacity="1"
     inkscape:pageshadow="0"
     inkscape:pageopacity="0"
     inkscape:pagecheckerboard="0"
     showgrid="false"
     inkscape:zoom="10.286659"
     inkscape:cx="8.2631299"
     inkscape:cy="4.7634514"
     inkscape:window-width="1312"
     inkscape:window-height="916"
     inkscape:window-x="0"
     inkscape:window-y="38"
     inkscape:window-maximized="0"
     inkscape:current-layer="svg11" />
  <path
     d="m 88.6328,-285.9587 q -20.67172,0 -34.64762,-14.33759 Q 40,-314.63388 40,-335.24068 q 0,-20.61608 13.98518,-34.55489 13.9759,-13.94808 34.64762,-13.94808 h 152.04705 q 20.67173,0 34.64763,14.33759 13.98517,14.32831 13.98517,34.94439 0,20.61608 -13.98517,34.55489 -13.9759,13.94808 -34.64763,13.94808 z m 0,-209.07282 q -20.67172,0 -34.64762,-14.33759 Q 40,-523.69742 40,-544.3135 q 0,-20.6068 13.98518,-34.55488 13.9759,-13.94808 34.64762,-13.94808 h 378.82391 q 20.66245,0 34.64763,14.33759 13.9759,14.33758 13.9759,34.94439 0,20.61608 -13.9759,34.56416 -13.98518,13.9388 -34.64763,13.9388 z m 0,-209.07281 q -20.67172,0 -34.64762,-14.32831 Q 40,-732.77023 40,-753.37704 40,-773.99311 54.33759,-787.94119 68.67517,-801.88 89.15214,-801.88 h 605.5915 q 20.67172,0 34.64762,14.33759 13.98518,14.32831 13.98518,34.94439 0,20.6068 -14.33759,34.55488 -14.33758,13.93881 -34.81455,13.93881 z"
     id="path9"
     style="stroke-width:0.927399" />
  <g
     style="fill:#e8eaed"
     id="g106"
     transform="matrix(0.78835917,0,0,0.78835917,291.39946,45.658266)">
    <path
       d="m 427,-344.09 v -422.13 q 0,-22.08 15.46,-37.54 15.45,-15.46 37.54,-15.46 22.09,0 37.54,15.46 15.46,15.46 15.46,37.54 v 422.13 l 173.96,-173.95 q 15.95,-15.96 37.61,-15.74 21.65,0.21 37.6,16.17 14.96,15.96 15.18,37.61 0.22,21.65 -15.74,37.61 l -264,264 q -7.7,7.69 -17.52,11.61 -9.83,3.91 -20.09,3.91 -10.26,0 -20.09,-3.91 -9.82,-3.92 -17.52,-11.61 L 177.83,-442.96 q -15.53,-15.52 -15.53,-37.11 0,-21.58 15.53,-37.54 15.95,-15.96 37.82,-15.96 21.87,0 37.83,15.96 z"
       id="path97" />
  </g>
</svg>
